#!OML:ASF G:\JayActor3\Patient Classification 1\Patient 1\Session 6\male.ASF
:FULLY-SPECIFIED
:DEGREES
799
root 11.708 16.0439 -3.20701 10.9537 -49.9117 -22.2328
lowerback 1.38963 -1.67512 8.69831
upperback -0.375765 -2.10238 4.53504
thorax -1.30856 -1.1318 -0.120957
lowerneck -7.19165 -1.08671 2.38426
upperneck 24.4713 -1.84803 -1.88674
head 8.76136 -0.99494 -1.24482
rclavicle -3.37437e-014 1.04362e-014
rhumerus -24.0121 -0.794935 -82.9241
rradius 28.9141
rwrist 7.26166
rhand -7.45797 -7.36258
rfingers 7.12502
rthumb 18.4303 -36.5095
lclavicle -3.37437e-014 1.04362e-014
lhumerus -43.6311 24.9769 73.4687
lradius 22.0437
lwrist 14.2554
lhand -14.4113 19.0799
lfingers 7.12502
lthumb 11.7325 48.7313
rfemur 2.27956 -15.0017 37.9918
rtibia 24.2485
rfoot -22.0524 -6.29907
rtoes 9.89507
lfemur -21.9942 4.28877 -4.97857
ltibia 44.3566
lfoot -15.8488 -9.39504
ltoes -12.5173
800
root 11.6761 16.0416 -3.17264 11.0926 -50.0988 -22.2884
lowerback 1.21167 -1.63152 8.80873
upperback -0.381399 -2.06547 4.54784
thorax -1.21518 -1.11178 -0.175254
lowerneck -7.11324 -1.14723 2.30958
upperneck 24.4563 -1.90107 -1.97021
head 8.73972 -1.03596 -1.26428
rclavicle -6.27911e-014 -7.95139e-016
rhumerus -23.9934 -0.55623 -83.1179
rradius 29.022
rwrist 7.21908
rhand -7.41679 -7.36482
rfingers 7.12502
rthumb 18.4699 -36.508
lclavicle -6.27911e-014 -7.95139e-016
lhumerus -43.8288 25.3893 73.1371
lradius 21.5423
lwrist 13.8315
lhand -14.3695 19.0495
lfingers 7.12502
lthumb 11.7728 48.6986
rfemur 2.41849 -14.8808 37.9278
rtibia 24.2433
rfoot -22.1402 -6.18061
rtoes 9.86388
lfemur -21.7439 4.27994 -5.02816
ltibia 44.2594
lfoot -15.863 -9.08581
ltoes -11.6184
801
root 11.6436 16.0396 -3.13812 11.2368 -50.2797 -22.3436
lowerback 1.02188 -1.59334 8.91271
upperback -0.392401 -2.03741 4.56101
thorax -1.12097 -1.09612 -0.225416
lowerneck -7.02901 -1.21204 2.22506
upperneck 24.4497 -1.9616 -2.04365
head 8.72001 -1.08053 -1.27939
rclavicle -1.86609e-014 -3.89618e-014
rhumerus -23.9821 -0.37384 -83.3017
rradius 29.1105
rwrist 7.20661
rhand -7.3852 -7.36594
rfingers 7.12502
rthumb 18.5003 -36.5062
lclavicle -1.86609e-014 -3.89618e-014
lhumerus -44.0424 25.8169 72.7829
lradius 21.0491
lwrist 13.3979
lhand -14.3264 19.0362
lfingers 7.12502
lthumb 11.8144 48.6829
rfemur 2.55723 -14.718 37.8789
rtibia 24.2248
rfoot -22.2398 -6.10387
rtoes 9.86326
lfemur -21.501 4.27042 -5.07502
ltibia 44.2228
lfoot -15.9819 -8.84588
ltoes -10.8244
802
root 11.6107 16.038 -3.10358 11.3761 -50.4547 -22.3866
lowerback 0.82802 -1.56157 9.00149
upperback -0.411135 -2.0183 4.57273
thorax -1.03257 -1.08506 -0.268282
lowerneck -6.93868 -1.28135 2.12829
upperneck 24.4525 -2.03043 -2.10357
head 8.70258 -1.12894 -1.28863
rclavicle 5.53864e-014 -2.56929e-014
rhumerus -23.9839 -0.228464 -83.4794
rradius 29.1799
rwrist 7.20783
rhand -7.36664 -7.36395
rfingers 7.12502
rthumb 18.5182 -36.5025
lclavicle 5.53864e-014 -2.56929e-014
lhumerus -44.2791 26.2844 72.3863
lradius 20.5616
lwrist 12.9361
lhand -14.2926 19.0481
lfingers 7.12502
lthumb 11.847 48.693
rfemur 2.69271 -14.5116 37.8384
rtibia 24.1998
rfoot -22.3534 -6.07303
rtoes 9.87619
lfemur -21.2639 4.2447 -5.12923
ltibia 44.1997
lfoot -16.1804 -8.65445
ltoes -10.1063
803
root 11.5773 16.0367 -3.06924 11.5028 -50.6221 -22.4152
lowerback 0.639454 -1.53822 9.07083
upperback -0.437098 -2.00957 4.58309
thorax -0.954753 -1.07947 -0.301207
lowerneck -6.83893 -1.35376 2.01945
upperneck 24.4637 -2.10602 -2.14835
head 8.68655 -1.1803 -1.2913
rclavicle 1.53474e-013 -8.34896e-015
rhumerus -23.9995 -0.118775 -83.6529
rradius 29.2257
rwrist 7.22296
rhand -7.37508 -7.35396
rfingers 7.12502
rthumb 18.5101 -36.4933
lclavicle 1.53474e-013 -8.34896e-015
lhumerus -44.5415 26.7753 71.9553
lradius 20.0938
lwrist 12.4704
lhand -14.2678 19.0956
lfingers 7.12502
lthumb 11.8708 48.7391
rfemur 2.83104 -14.2646 37.8046
rtibia 24.1694
rfoot -22.4817 -6.08115
rtoes 9.90617
lfemur -21.0276 4.19691 -5.19298
ltibia 44.1521
lfoot -16.4171 -8.44549
ltoes -9.43204
804
root 11.5436 16.0358 -3.03501 11.6077 -50.785 -22.4266
lowerback 0.465549 -1.52267 9.11991
upperback -0.4692 -2.00908 4.59099
thorax -0.891558 -1.07841 -0.324743
lowerneck -6.73048 -1.43349 1.90133
upperneck 24.4837 -2.19316 -2.18515
head 8.67199 -1.23739 -1.29074
rclavicle 7.70663e-014 -2.05494e-014
rhumerus -24.0345 -0.0394677 -83.8222
rradius 29.2542
rwrist 7.23993
rhand -7.40277 -7.34076
rfingers 7.12502
rthumb 18.4834 -36.4826
lclavicle 7.70663e-014 -2.05494e-014
lhumerus -44.8303 27.2765 71.4953
lradius 19.6504
lwrist 12.0164
lhand -14.253 19.1468
lfingers 7.12502
lthumb 11.8851 48.7895
rfemur 2.98185 -13.9853 37.7701
rtibia 24.131
rfoot -22.6177 -6.12591
rtoes 9.92824
lfemur -20.782 4.12191 -5.27151
ltibia 44.0567
lfoot -16.6487 -8.14387
ltoes -8.78515
805
root 11.5096 16.0354 -3.00078 11.6848 -50.9461 -22.419
lowerback 0.312522 -1.51556 9.15044
upperback -0.506832 -2.01669 4.59382
thorax -0.846026 -1.08191 -0.342414
lowerneck -6.61209 -1.51893 1.78147
upperneck 24.5127 -2.29008 -2.21739
head 8.65871 -1.29907 -1.2892
rclavicle 2.37843e-014 -1.06598e-014
rhumerus -24.087 0.0137203 -83.9915
rradius 29.2547
rwrist 7.25467
rhand -7.44975 -7.32056
rfingers 7.12502
rthumb 18.4382 -36.4667
lclavicle 2.37843e-014 -1.06598e-014
lhumerus -45.1473 27.7883 70.9994
lradius 19.2315
lwrist 11.5747
lhand -14.2396 19.1949
lfingers 7.12502
lthumb 11.8981 48.8368
rfemur 3.1544 -13.6818 37.7287
rtibia 24.0785
rfoot -22.7541 -6.19924
rtoes 9.93549
lfemur -20.5191 4.01939 -5.36727
ltibia 43.9087
lfoot -16.8401 -7.72768
ltoes -8.1074
806
root 11.4755 16.0356 -2.96635 11.7391 -51.1085 -22.4035
lowerback 0.184669 -1.5147 9.17485
upperback -0.54771 -2.02899 4.59097
thorax -0.818411 -1.08833 -0.361652
lowerneck -6.48786 -1.60994 1.66522
upperneck 24.5509 -2.39641 -2.2494
head 8.6474 -1.36509 -1.28905
rclavicle 4.25205e-014 8.36386e-014
rhumerus -24.1653 0.0469094 -84.1628
rradius 29.2423
rwrist 7.26491
rhand -7.51711 -7.30085
rfingers 7.12502
rthumb 18.3734 -36.4531
lclavicle 4.25205e-014 8.36386e-014
lhumerus -45.4879 28.3102 70.4667
lradius 18.8341
lwrist 11.1377
lhand -14.2388 19.2242
lfingers 7.12502
lthumb 11.8988 48.8661
rfemur 3.35545 -13.3617 37.6819
rtibia 24.0083
rfoot -22.8856 -6.2884
rtoes 9.94414
lfemur -20.2356 3.90365 -5.47627
ltibia 43.7185
lfoot -16.9738 -7.20949
ltoes -7.43032
807
root 11.4416 16.0365 -2.93156 11.7646 -51.2765 -22.3749
lowerback 0.0806683 -1.51851 9.19184
upperback -0.588935 -2.0442 4.5805
thorax -0.804857 -1.09657 -0.383932
lowerneck -6.35679 -1.70412 1.55902
upperneck 24.594 -2.50882 -2.28451
head 8.63629 -1.4336 -1.29211
rclavicle 3.95752e-014 1.07282e-014
rhumerus -24.2612 0.0523641 -84.3336
rradius 29.2067
rwrist 7.27816
rhand -7.58903 -7.27985
rfingers 7.12502
rthumb 18.3042 -36.4386
lclavicle 3.95752e-014 1.07282e-014
lhumerus -45.8429 28.8206 69.9139
lradius 18.4644
lwrist 10.7401
lhand -14.2324 19.2288
lfingers 7.12502
lthumb 11.905 48.8703
rfemur 3.58907 -13.0302 37.6217
rtibia 23.9186
rfoot -23.0087 -6.38553
rtoes 9.95785
lfemur -19.9288 3.78328 -5.60379
ltibia 43.5069
lfoot -17.0436 -6.64109
ltoes -6.71135
808
root 11.408 16.0381 -2.89636 11.7661 -51.4549 -22.3345
lowerback -0.00389481 -1.52495 9.20427
upperback -0.629144 -2.06029 4.56186
thorax -0.80143 -1.10547 -0.411565
lowerneck -6.22301 -1.79797 1.46075
upperneck 24.6397 -2.62305 -2.31795
head 8.62562 -1.50224 -1.29601
rclavicle -4.03315e-015 -5.75233e-015
rhumerus -24.3761 0.0410071 -84.5051
rradius 29.1537
rwrist 7.30038
rhand -7.64965 -7.26014
rfingers 7.12502
rthumb 18.2459 -36.4244
lclavicle -4.03315e-015 -5.75233e-015
lhumerus -46.2108 29.327 69.3376
lradius 18.1227
lwrist 10.3545
lhand -14.2078 19.205
lfingers 7.12502
lthumb 11.9288 48.8452
rfemur 3.84772 -12.6874 37.5478
rtibia 23.8126
rfoot -23.1184 -6.49421
rtoes 9.94363
lfemur -19.6033 3.663 -5.75061
ltibia 43.2954
lfoot -17.0608 -6.05649
ltoes -5.95458
809
root 11.3748 16.0406 -2.86069 11.7458 -51.6451 -22.2778
lowerback -0.0753053 -1.53245 9.21368
upperback -0.668537 -2.0759 4.53348
thorax -0.804817 -1.11427 -0.447231
lowerneck -6.08568 -1.89127 1.36571
upperneck 24.6843 -2.73892 -2.34532
head 8.61402 -1.57087 -1.29838
rclavicle 7.4948e-015 -3.36692e-014
rhumerus -24.5084 0.0214828 -84.6791
rradius 29.0795
rwrist 7.35816
rhand -7.73095 -7.23417
rfingers 7.12502
rthumb 18.1677 -36.4057
lclavicle 7.4948e-015 -3.36692e-014
lhumerus -46.5857 29.8211 68.7487
lradius 17.8151
lwrist 9.99081
lhand -14.1773 19.1677
lfingers 7.12502
lthumb 11.9581 48.8061
rfemur 4.12212 -12.3355 37.4574
rtibia 23.6964
rfoot -23.218 -6.60628
rtoes 9.92178
lfemur -19.2685 3.54378 -5.91956
ltibia 43.1013
lfoot -17.0434 -5.47379
ltoes -5.17812
810
root 11.3421 16.0439 -2.82458 11.703 -51.8523 -22.1961
lowerback -0.143522 -1.53914 9.21061
upperback -0.706038 -2.09 4.49582
thorax -0.807846 -1.1221 -0.485658
lowerneck -5.94728 -1.98736 1.26678
upperneck 24.7228 -2.86035 -2.36453
head 8.60039 -1.6417 -1.29757
rclavicle 1.68066e-014 -2.13445e-014
rhumerus -24.6561 -0.0066059 -84.8516
rradius 28.991
rwrist 7.45615
rhand -7.80701 -7.20589
rfingers 7.12502
rthumb 18.0945 -36.3842
lclavicle 1.68066e-014 -2.13445e-014
lhumerus -46.9498 30.2629 68.1941
lradius 17.5583
lwrist 9.69064
lhand -14.1505 19.1421
lfingers 7.12502
lthumb 11.984 48.779
rfemur 4.40047 -11.9647 37.3482
rtibia 23.5781
rfoot -23.3124 -6.73235
rtoes 9.87505
lfemur -18.9322 3.42793 -6.11502
ltibia 42.9317
lfoot -17.0085 -4.90987
ltoes -4.39487
811
root 11.3098 16.048 -2.78813 11.6416 -52.0756 -22.0886
lowerback -0.213992 -1.54442 9.19577
upperback -0.741816 -2.10243 4.44822
thorax -0.807655 -1.1288 -0.528085
lowerneck -5.80363 -2.0876 1.166
upperneck 24.7482 -2.98962 -2.37444
head 8.5815 -1.71546 -1.29353
rclavicle -3.33026e-014 -1.87355e-014
rhumerus -24.8157 -0.0247456 -85.0268
rradius 28.8852
rwrist 7.57796
rhand -7.88566 -7.17008
rfingers 7.12502
rthumb 18.0189 -36.3554
lclavicle -3.33026e-014 -1.87355e-014
lhumerus -47.2991 30.6552 67.6761
lradius 17.3543
lwrist 9.44034
lhand -14.1301 19.1408
lfingers 7.12502
lthumb 12.0036 48.7766
rfemur 4.672 -11.574 37.2224
rtibia 23.4673
rfoot -23.4062 -6.87211
rtoes 9.80845
lfemur -18.6005 3.31079 -6.33414
ltibia 42.7839
lfoot -16.9727 -4.37451
ltoes -3.63069
812
root 11.2779 16.0527 -2.75146 11.5691 -52.3151 -21.961
lowerback -0.291512 -1.54675 9.17044
upperback -0.774378 -2.11194 4.3929
thorax -0.799844 -1.13358 -0.573107
lowerneck -5.66286 -2.19849 1.05719
upperneck 24.7611 -3.13417 -2.37814
head 8.559 -1.79649 -1.28702
rclavicle 8.34274e-015 -1.3418e-015
rhumerus -24.9977 -0.0674477 -85.1963
rradius 28.7967
rwrist 7.74596
rhand -7.93632 -7.14275
rfingers 7.12502
rthumb 17.9701 -36.3326
lclavicle 8.34274e-015 -1.3418e-015
lhumerus -47.6171 30.9694 67.2293
lradius 17.2103
lwrist 9.26324
lhand -14.1036 19.1476
lfingers 7.12502
lthumb 12.0292 48.7819
rfemur 4.92849 -11.1533 37.0882
rtibia 23.3714
rfoot -23.5079 -7.0278
rtoes 9.75396
lfemur -18.276 3.19854 -6.5693
ltibia 42.6482
lfoot -16.952 -3.8763
ltoes -2.93594
813
root 11.2464 16.0577 -2.71475 11.4718 -52.5721 -21.7944
lowerback -0.377342 -1.54618 9.12131
upperback -0.803112 -2.11868 4.32732
thorax -0.782673 -1.13633 -0.616131
lowerneck -5.52819 -2.32008 0.938912
upperneck 24.7606 -3.29413 -2.37398
head 8.53328 -1.88475 -1.27726
rclavicle -5.93559e-014 -8.44835e-015
rhumerus -25.1775 -0.110013 -85.3633
rradius 28.6925
rwrist 7.91655
rhand -7.96127 -7.11894
rfingers 7.12502
rthumb 17.9461 -36.311
lclavicle -5.93559e-014 -8.44835e-015
lhumerus -47.8908 31.1912 66.8747
lradius 17.1284
lwrist 9.1806
lhand -14.0854 19.1642
lfingers 7.12502
lthumb 12.0468 48.7975
rfemur 5.16576 -10.7062 36.9336
rtibia 23.2963
rfoot -23.6205 -7.19825
rtoes 9.69152
lfemur -17.9559 3.09141 -6.8307
ltibia 42.5107
lfoot -16.9604 -3.41235
ltoes -2.36159
